<svg width="156" height="49" viewBox="0 0 156 49" fill="none" xmlns="http://www.w3.org/2000/svg">
<g clip-path="url(#clip0_1396_330)">
<path d="M68.5898 40.3066L69.809 34.4858H70.5861L69.9918 37.2828L73.1767 34.4858H74.2739L71.5462 36.8595L73.5425 40.3066H72.6891L70.9976 37.3584L69.7632 38.4167L69.367 40.3066H68.5898Z" fill="#B5B9F5"/>
<path d="M77.2766 38.8856L77.9776 38.9612C77.871 39.309 77.6424 39.6416 77.2766 39.9439C76.9109 40.2614 76.4842 40.4126 75.9813 40.4126C75.6766 40.4126 75.387 40.337 75.128 40.201C74.8537 40.0649 74.6556 39.8532 74.5184 39.5811C74.4422 39.445 74.3965 39.2938 74.366 39.1427C74.3355 38.9915 74.3203 38.8252 74.3203 38.6437C74.3203 38.175 74.427 37.7215 74.6403 37.2982C74.8537 36.8748 75.128 36.5573 75.4785 36.3457C75.8137 36.134 76.1947 36.0282 76.5909 36.0282C77.0938 36.0282 77.5052 36.1794 77.81 36.4969C78.1148 36.8144 78.2672 37.2377 78.2672 37.782L78.2519 38.0995C78.2519 38.1448 78.2519 38.1902 78.2519 38.2053C78.2519 38.2355 78.2367 38.296 78.2062 38.417H75.0823L75.067 38.6437C75.067 39.0368 75.1584 39.3392 75.3413 39.5509C75.5242 39.7625 75.7528 39.8532 76.0118 39.8532C76.2556 39.8532 76.4995 39.7776 76.7433 39.6113C76.9566 39.4299 77.1395 39.188 77.2766 38.8856ZM75.1737 37.8424H77.5662V37.6912C77.5662 37.3284 77.4748 37.0563 77.2919 36.8597C77.109 36.6632 76.8804 36.5725 76.5909 36.5725C76.2861 36.5725 75.9966 36.6783 75.7528 36.89C75.5089 37.0865 75.3108 37.404 75.1737 37.8424ZM75.448 35.6049L76.5147 34.5163H77.3071L77.7948 35.6049H77.17L76.8195 35.0606L76.1947 35.6049H75.448ZM77.8252 34.9245L78.6329 33.8511H79.5168L78.3891 34.9245H77.8252Z" fill="#B5B9F5"/>
<path d="M80.6141 39.7321L80.4922 40.3217C80.3093 40.3671 80.1417 40.3822 79.9893 40.3822C79.6998 40.3822 79.4712 40.3066 79.3036 40.1706C79.1817 40.0647 79.1055 39.9287 79.1055 39.7321C79.1055 39.6868 79.1207 39.6112 79.1359 39.5053L79.2121 39.082L79.7303 36.6328H79.1512L79.2731 36.0734H79.8522L80.0655 35.0302L80.8884 34.5312L80.5684 36.0582H81.2846L81.1627 36.6176H80.4617L79.9741 38.9459C79.9131 39.2483 79.8827 39.4297 79.8827 39.4751C79.8827 39.5507 79.9131 39.6112 79.9588 39.6716C80.0046 39.717 80.096 39.7321 80.2027 39.7321C80.3398 39.7775 80.477 39.7624 80.6141 39.7321Z" fill="#B5B9F5"/>
<path d="M83.8887 40.3069L84.7725 36.0888H85.4278L85.2754 36.8296C85.5649 36.5423 85.8392 36.3307 86.0831 36.1946C86.3269 36.0585 86.5859 35.998 86.8298 35.998C87.1803 35.998 87.4393 36.0888 87.6374 36.2702C87.8355 36.4516 87.927 36.7086 87.927 37.011C87.927 37.0866 87.927 37.1773 87.9117 37.2831C87.8965 37.389 87.8812 37.4646 87.8812 37.525C87.866 37.5855 87.8508 37.6611 87.8355 37.7367L87.3022 40.2918H86.5859L87.1498 37.6158C87.2107 37.3587 87.2412 37.1622 87.2412 37.0412C87.2412 36.9052 87.1955 36.7993 87.0888 36.7086C86.9822 36.6179 86.845 36.5726 86.6621 36.5726C86.2964 36.5726 85.9612 36.7086 85.6716 36.9656C85.3821 37.2227 85.1687 37.6762 85.0316 38.3263L84.6201 40.2918H83.8887V40.3069Z" fill="#B5B9F5"/>
<path d="M88.7656 38.7194C88.7656 37.903 89.0094 37.2226 89.4971 36.6784C89.8933 36.2399 90.4267 36.0131 91.0819 36.0131C91.6001 36.0131 92.0115 36.1794 92.3163 36.4969C92.6363 36.8144 92.7887 37.2378 92.7887 37.782C92.7887 38.2658 92.6972 38.7194 92.4991 39.1276C92.301 39.5358 92.0267 39.8533 91.661 40.0801C91.2953 40.3069 90.9143 40.4127 90.5029 40.4127C90.1676 40.4127 89.8781 40.3371 89.6038 40.201C89.3447 40.065 89.1314 39.8684 88.979 39.6114C88.8418 39.3544 88.7656 39.052 88.7656 38.7194ZM89.4971 38.6438C89.4971 39.0369 89.5885 39.3393 89.7866 39.5509C89.9847 39.7626 90.2286 39.8533 90.5181 39.8533C90.6095 39.8533 90.6857 39.8533 90.7467 39.8382C90.8229 39.8231 90.8991 39.8079 90.9753 39.7626C91.1276 39.7021 91.2648 39.6114 91.3867 39.4753C91.5086 39.3544 91.6305 39.2032 91.722 39.0369C91.7677 38.9613 91.7982 38.8857 91.8439 38.795C91.8744 38.7043 91.9201 38.5984 91.9505 38.4775C91.981 38.3565 92.0115 38.2356 92.042 38.0995C92.0725 37.9635 92.0725 37.8576 92.0725 37.7367C92.0725 37.3587 91.981 37.0563 91.7829 36.8447C91.5848 36.633 91.341 36.5272 91.0515 36.5272C90.8229 36.5272 90.6248 36.5725 90.4419 36.6784C90.259 36.7842 90.0914 36.9354 89.9238 37.147C89.7866 37.3436 89.68 37.5855 89.6038 37.8576C89.5276 38.1902 89.4971 38.4321 89.4971 38.6438ZM89.9543 35.6654L91.021 34.5768H91.8286L92.3163 35.6654H91.6915L91.341 35.1211L90.7162 35.6654H89.9543ZM92.3163 34.9851L93.1239 33.9116H94.0078L92.8801 34.9851H92.3163Z" fill="#B5B9F5"/>
<path d="M93.3828 40.3066L94.2667 36.0884H94.9829L94.099 40.3066H93.3828ZM94.4343 35.3023L94.6019 34.4858H95.3181L95.1505 35.3023H94.4343Z" fill="#B5B9F5"/>
<path d="M97.9238 40.3066L99.1582 34.4858H99.8744L99.1125 38.0992L101.231 36.0884H102.191L100.377 37.6608L101.474 40.3066H100.682L99.8287 38.1446L98.9448 38.9005L98.6553 40.3066H97.9238Z" fill="#B5B9F5"/>
<path d="M102.207 40.3066L103.426 34.4858H104.158L103.685 36.7234C103.944 36.4664 104.203 36.285 104.432 36.1791C104.554 36.1187 104.676 36.0733 104.782 36.0431C104.904 36.0128 105.026 35.9977 105.148 35.9977C105.499 35.9977 105.773 36.0884 105.971 36.2699C106.169 36.4513 106.261 36.6932 106.261 36.9956C106.261 37.1619 106.215 37.434 106.139 37.812L105.621 40.3066H104.889L105.422 37.7515C105.499 37.3735 105.544 37.1467 105.544 37.056C105.544 36.92 105.499 36.8141 105.407 36.7234C105.316 36.6327 105.179 36.5874 104.996 36.5874C104.737 36.5874 104.493 36.6478 104.249 36.7839C104.02 36.92 103.822 37.1014 103.685 37.3433C103.563 37.5701 103.441 37.948 103.319 38.4923L102.938 40.3066H102.207Z" fill="#B5B9F5"/>
<path d="M107.098 38.7192C107.098 37.9028 107.341 37.2224 107.829 36.6782C108.225 36.2397 108.759 36.0129 109.414 36.0129C109.932 36.0129 110.344 36.1793 110.648 36.4967C110.968 36.8142 111.121 37.2376 111.121 37.7818C111.121 38.2656 111.029 38.7192 110.831 39.1274C110.633 39.5356 110.359 39.8531 109.993 40.0799C109.627 40.3067 109.246 40.4125 108.835 40.4125C108.5 40.4125 108.21 40.3369 107.936 40.2008C107.677 40.0648 107.463 39.8682 107.311 39.6112C107.174 39.3542 107.098 39.0518 107.098 38.7192ZM107.829 38.6436C107.829 39.0367 107.921 39.3391 108.119 39.5507C108.317 39.7624 108.561 39.8531 108.85 39.8531C108.942 39.8531 109.018 39.8531 109.079 39.838C109.155 39.8229 109.231 39.8078 109.307 39.7624C109.46 39.7019 109.597 39.6112 109.719 39.4751C109.841 39.3542 109.963 39.203 110.054 39.0367C110.1 38.9611 110.13 38.8855 110.176 38.7948C110.206 38.7041 110.252 38.5983 110.283 38.4773C110.313 38.3564 110.344 38.2354 110.374 38.0993C110.389 37.9784 110.404 37.8574 110.404 37.7365C110.404 37.3585 110.313 37.0561 110.115 36.8445C109.917 36.6328 109.673 36.527 109.383 36.527C109.155 36.527 108.957 36.5723 108.774 36.6782C108.591 36.784 108.423 36.9352 108.256 37.1469C108.119 37.3434 108.012 37.5853 107.936 37.8574C107.86 38.1296 107.829 38.432 107.829 38.6436ZM108.271 35.6652L109.338 34.5767H110.13L110.618 35.6652H109.993L109.643 35.1209L109.018 35.6652H108.271Z" fill="#B5B9F5"/>
<path d="M111.73 40.3069L112.614 36.0888H113.27L113.117 36.8296C113.407 36.5423 113.681 36.3307 113.925 36.1946C114.169 36.0585 114.428 35.998 114.672 35.998C115.022 35.998 115.281 36.0888 115.479 36.2702C115.677 36.4516 115.769 36.7086 115.769 37.011C115.769 37.0866 115.769 37.1773 115.754 37.2831C115.738 37.389 115.723 37.4646 115.723 37.525C115.708 37.5855 115.693 37.6611 115.677 37.7367L115.144 40.2918H114.428L114.992 37.6158C115.053 37.3587 115.083 37.1622 115.083 37.0412C115.083 36.9052 115.037 36.7993 114.931 36.7086C114.824 36.6179 114.687 36.5726 114.504 36.5726C114.138 36.5726 113.803 36.7086 113.513 36.9656C113.224 37.2227 113.011 37.6762 112.873 38.3263L112.462 40.2918H111.73V40.3069Z" fill="#B5B9F5"/>
<path d="M116.455 40.7L117.186 40.7605C117.186 40.9268 117.201 41.0477 117.247 41.1233C117.293 41.1989 117.354 41.2745 117.461 41.3199C117.522 41.3501 117.598 41.3652 117.689 41.3804C117.781 41.3955 117.872 41.4106 117.979 41.4106C118.405 41.4106 118.725 41.3048 118.923 41.078C119.045 40.9268 119.167 40.5942 119.274 40.0953L119.35 39.7475C118.969 40.1255 118.573 40.322 118.146 40.322C117.72 40.322 117.354 40.1709 117.064 39.8534C116.775 39.5359 116.638 39.0974 116.638 38.5229C116.638 38.0542 116.744 37.6158 116.973 37.2227C117.201 36.8296 117.476 36.5272 117.781 36.3156C118.101 36.1039 118.421 36.0132 118.756 36.0132C119.304 36.0132 119.731 36.2702 120.051 36.7994L120.188 36.1039H120.859L120.005 40.1709C119.914 40.6244 119.792 40.9721 119.64 41.214C119.487 41.4711 119.274 41.6525 119 41.7886C118.725 41.9246 118.421 42.0002 118.07 42.0002C117.735 42.0002 117.445 41.9549 117.201 41.8642C116.958 41.7734 116.76 41.6525 116.638 41.4862C116.516 41.3199 116.455 41.1233 116.455 40.9117V40.8058C116.44 40.7756 116.44 40.7302 116.455 40.7ZM117.354 38.4473C117.354 38.7194 117.384 38.9462 117.43 39.0974C117.506 39.294 117.628 39.4452 117.765 39.5661C117.842 39.6266 117.918 39.6568 117.994 39.687C118.07 39.7173 118.162 39.7324 118.253 39.7324C118.497 39.7324 118.725 39.6568 118.954 39.4905C119.183 39.3242 119.365 39.0672 119.518 38.7194C119.67 38.3717 119.746 38.0391 119.746 37.7367C119.746 37.389 119.655 37.1169 119.457 36.9052C119.259 36.6935 119.03 36.6028 118.741 36.6028C118.558 36.6028 118.39 36.6482 118.238 36.7389C118.07 36.8296 117.918 36.9808 117.765 37.1773C117.628 37.3588 117.522 37.5855 117.445 37.8577C117.4 38.0996 117.354 38.3112 117.354 38.4473Z" fill="#B5B9F5"/>
<path d="M123.694 40.7L124.426 40.7605C124.426 40.9268 124.441 41.0477 124.487 41.1233C124.532 41.1989 124.593 41.2745 124.7 41.3199C124.761 41.3501 124.837 41.3652 124.929 41.3804C125.02 41.3955 125.111 41.4106 125.218 41.4106C125.645 41.4106 125.965 41.3048 126.163 41.078C126.285 40.9268 126.407 40.5942 126.513 40.0953L126.59 39.7475C126.209 40.1255 125.812 40.322 125.386 40.322C124.959 40.322 124.593 40.1709 124.304 39.8534C124.014 39.5359 123.877 39.0974 123.877 38.5229C123.877 38.0542 123.984 37.6158 124.212 37.2227C124.441 36.8296 124.715 36.5272 125.02 36.3156C125.34 36.1039 125.66 36.0132 125.995 36.0132C126.544 36.0132 126.971 36.2702 127.291 36.7994L127.428 36.1039H128.098L127.245 40.1709C127.153 40.6244 127.032 40.9721 126.879 41.214C126.727 41.4711 126.513 41.6525 126.239 41.7886C125.965 41.9246 125.66 42.0002 125.31 42.0002C124.974 42.0002 124.685 41.9549 124.441 41.8642C124.197 41.7734 123.999 41.6525 123.877 41.4862C123.755 41.3199 123.694 41.1233 123.694 40.9117V40.8058C123.679 40.7756 123.694 40.7302 123.694 40.7ZM124.609 38.4473C124.609 38.7194 124.639 38.9462 124.685 39.0974C124.761 39.294 124.883 39.4452 125.02 39.5661C125.096 39.6266 125.172 39.6568 125.249 39.687C125.325 39.7173 125.416 39.7324 125.508 39.7324C125.752 39.7324 125.98 39.6568 126.209 39.4905C126.437 39.3242 126.62 39.0672 126.773 38.7194C126.925 38.3717 127.001 38.0391 127.001 37.7367C127.001 37.389 126.91 37.1169 126.712 36.9052C126.513 36.6935 126.285 36.6028 125.995 36.6028C125.812 36.6028 125.645 36.6482 125.492 36.7389C125.325 36.8296 125.172 36.9808 125.02 37.1773C124.883 37.3588 124.776 37.5855 124.7 37.8577C124.639 38.0996 124.609 38.3112 124.609 38.4473Z" fill="#B5B9F5"/>
<path d="M128.479 40.3066L129.362 36.0884H130.094L129.21 40.3066H128.479ZM129.53 35.3023L129.698 34.4858H130.414L130.246 35.3023H129.53Z" fill="#B5B9F5"/>
<path d="M134.178 36.4517L134.3 36.3157L134.361 36.1645C134.33 36.1947 134.285 36.2098 134.239 36.2098H134.193L134.132 36.1947C134.087 36.1796 134.056 36.1645 134.026 36.1494C133.995 36.1191 133.965 36.0889 133.919 36.0284C133.873 35.9679 133.858 35.9075 133.858 35.8319L133.873 35.726C133.904 35.6051 133.98 35.4993 134.102 35.4388C134.193 35.3934 134.269 35.3783 134.361 35.3783H134.422L134.513 35.3934C134.528 35.3934 134.559 35.4085 134.574 35.4085C134.605 35.4237 134.635 35.4237 134.666 35.4388C134.696 35.4539 134.727 35.469 134.757 35.4993C134.772 35.5144 134.803 35.5597 134.849 35.6202C134.864 35.6353 134.864 35.6504 134.894 35.6958C134.909 35.7412 134.925 35.7714 134.925 35.7865C134.94 35.8319 134.94 35.8772 134.94 35.9226C134.94 35.9679 134.955 36.0133 134.955 36.0738V36.1342L134.94 36.1796C134.909 36.3157 134.848 36.4366 134.757 36.5273C134.666 36.618 134.574 36.7088 134.437 36.7692C134.605 37.0414 134.681 37.374 134.681 37.752C134.681 38.2358 134.589 38.6893 134.391 39.0975C134.193 39.5057 133.919 39.8232 133.553 40.05C133.187 40.2768 132.806 40.3826 132.395 40.3826C132.06 40.3826 131.77 40.307 131.496 40.171C131.237 40.0349 131.024 39.8383 130.871 39.5813C130.719 39.3243 130.643 39.0219 130.643 38.6893C130.643 37.8729 130.886 37.1926 131.374 36.6483C131.77 36.2098 132.304 35.9831 132.959 35.9831C133.462 35.9982 133.873 36.1494 134.178 36.4517ZM131.374 38.644C131.374 39.037 131.465 39.3394 131.664 39.5511C131.862 39.7628 132.106 39.8535 132.395 39.8535C132.486 39.8535 132.563 39.8535 132.624 39.8383C132.7 39.8232 132.776 39.8081 132.852 39.7628C133.005 39.7023 133.142 39.6116 133.264 39.4755C133.386 39.3545 133.507 39.2034 133.599 39.0371C133.645 38.9615 133.675 38.8859 133.721 38.7951C133.751 38.7044 133.797 38.5986 133.827 38.4777C133.858 38.3567 133.888 38.2358 133.919 38.0997C133.934 37.9787 133.949 37.8578 133.949 37.7368C133.949 37.3589 133.858 37.0565 133.66 36.8448C133.462 36.6332 133.218 36.5273 132.928 36.5273C132.7 36.5273 132.502 36.5727 132.319 36.6785C132.136 36.7843 131.968 36.9355 131.801 37.1472C131.664 37.3437 131.557 37.5856 131.481 37.8578C131.405 38.1299 131.374 38.4323 131.374 38.644ZM132.532 35.5446L133.355 34.4561H134.254L133.111 35.5446H132.532Z" fill="#B5B9F5"/>
<path d="M135.26 40.3066L136.144 36.0884H136.875L135.991 40.3066H135.26ZM136.311 35.3023L136.479 34.4858H137.195L137.027 35.3023H136.311Z" fill="#B5B9F5"/>
<path d="M139.785 40.3066L141.004 34.4858H141.736L141.263 36.7234C141.522 36.4664 141.781 36.285 142.01 36.1791C142.132 36.1187 142.254 36.0733 142.361 36.0431C142.482 36.0128 142.604 35.9977 142.726 35.9977C143.077 35.9977 143.351 36.0884 143.549 36.2699C143.747 36.4513 143.839 36.6932 143.839 36.9956C143.839 37.1619 143.793 37.434 143.717 37.812L143.199 40.3066H142.482L143.016 37.7515C143.092 37.3735 143.138 37.1467 143.138 37.056C143.138 36.92 143.092 36.8141 143.001 36.7234C142.909 36.6327 142.772 36.5874 142.589 36.5874C142.33 36.5874 142.086 36.6478 141.842 36.7839C141.614 36.92 141.416 37.1014 141.279 37.3433C141.157 37.5701 141.035 37.948 140.913 38.4923L140.532 40.3066H139.785Z" fill="#B5B9F5"/>
<path d="M147.42 39.7929C147.177 39.9894 146.948 40.1557 146.704 40.2616C146.46 40.3674 146.216 40.4128 145.957 40.4128C145.561 40.4128 145.241 40.2918 145.013 40.065C144.784 39.8383 144.662 39.5359 144.662 39.1881C144.662 38.9462 144.708 38.7497 144.814 38.5683C144.921 38.3869 145.058 38.2508 145.241 38.1298C145.424 38.024 145.637 37.9333 145.912 37.8879L146.293 37.8426C146.46 37.8275 146.643 37.8123 146.841 37.8123C147.055 37.8123 147.253 37.7972 147.405 37.7821C147.557 37.7519 147.695 37.7216 147.817 37.6763C147.878 37.4797 147.893 37.3134 147.893 37.1925C147.893 37.0262 147.832 36.8901 147.71 36.7994C147.542 36.6633 147.298 36.6028 146.978 36.6028C146.674 36.6028 146.43 36.6633 146.232 36.7994C146.034 36.9354 145.896 37.1169 145.805 37.3739L145.074 37.3134C145.211 36.9052 145.455 36.5877 145.775 36.3609C146.11 36.1342 146.506 36.0283 147.009 36.0283C147.527 36.0283 147.954 36.1493 148.258 36.4063C148.487 36.5877 148.609 36.8296 148.609 37.132C148.609 37.3588 148.578 37.6158 148.502 37.9182L148.274 38.9614L148.198 39.4149C148.182 39.4754 148.182 39.5359 148.182 39.5964C148.182 39.6568 148.167 39.7022 148.167 39.7627C148.167 39.8987 148.198 40.0953 148.258 40.3372H147.527C147.497 40.2616 147.481 40.1709 147.466 40.0802C147.42 39.9743 147.42 39.8836 147.42 39.7929ZM147.679 38.1752L147.527 38.2205L147.344 38.2659L147.192 38.281L146.765 38.3264C146.567 38.3264 146.399 38.3415 146.232 38.3717C146.11 38.3869 145.988 38.4322 145.881 38.4624C145.714 38.5229 145.576 38.6136 145.485 38.7346C145.394 38.8555 145.348 38.9916 145.348 39.1428C145.348 39.3393 145.424 39.5056 145.561 39.6417C145.698 39.7778 145.896 39.8383 146.156 39.8383C146.293 39.8383 146.399 39.8231 146.506 39.7929C146.613 39.7627 146.719 39.7173 146.841 39.6417C147.055 39.5208 147.222 39.3545 147.359 39.1277C147.512 38.9311 147.603 38.5985 147.679 38.1752ZM145.714 41.8188L145.881 41.0024H146.597L146.43 41.8188H145.714Z" fill="#B5B9F5"/>
<path d="M149.311 40.3069L150.194 36.0888H150.85L150.697 36.8296C150.987 36.5423 151.261 36.3307 151.505 36.1946C151.749 36.0585 152.008 35.998 152.252 35.998C152.602 35.998 152.861 36.0888 153.059 36.2702C153.257 36.4516 153.349 36.7086 153.349 37.011C153.349 37.0866 153.349 37.1773 153.334 37.2831C153.318 37.389 153.303 37.4646 153.303 37.525C153.288 37.5855 153.273 37.6611 153.257 37.7367L152.724 40.2918H152.008L152.572 37.6158C152.633 37.3587 152.663 37.1622 152.663 37.0412C152.663 36.9052 152.617 36.7993 152.511 36.7086C152.404 36.6179 152.267 36.5726 152.084 36.5726C151.718 36.5726 151.383 36.7086 151.093 36.9656C150.804 37.2227 150.591 37.6762 150.453 38.3263L150.042 40.2918H149.311V40.3069Z" fill="#B5B9F5"/>
<path d="M87.5322 10.4924L84.6977 13.2742C82.8996 11.3995 80.8118 10.447 78.4193 10.447C76.3316 10.447 74.5944 11.1274 73.1924 12.5032C71.7904 13.879 71.0895 15.5421 71.0895 17.4924C71.0895 19.5183 71.8209 21.2267 73.2686 22.6328C74.7315 24.0388 76.5297 24.7494 78.6632 24.7494C80.0499 24.7494 81.2233 24.4622 82.1833 23.8725C83.1434 23.298 83.9053 22.3909 84.4996 21.1511H78.3736V17.4017H89.0103L89.0408 18.2786C89.0408 20.1079 88.5684 21.8466 87.6084 23.4945C86.6483 25.1425 85.414 26.3974 83.8901 27.2591C82.3662 28.1209 80.5833 28.5593 78.526 28.5593C76.3316 28.5593 74.381 28.0907 72.6591 27.1382C70.9371 26.1857 69.5808 24.8401 68.5751 23.1015C67.5693 21.3477 67.0664 19.473 67.0664 17.447C67.0664 14.6652 67.996 12.2613 69.8399 10.2051C72.0343 7.75589 74.8839 6.54639 78.4041 6.54639C80.248 6.54639 81.97 6.879 83.5701 7.55935C84.9111 8.11874 86.2369 9.10146 87.5322 10.4924Z" fill="url(#paint0_linear_1396_330)"/>
<path d="M105.652 6.53125C108.639 6.53125 111.214 7.60468 113.363 9.75155C115.512 11.8984 116.594 14.514 116.594 17.6133C116.594 20.6673 115.527 23.2677 113.409 25.3844C111.29 27.501 108.715 28.5593 105.683 28.5593C102.513 28.5593 99.8765 27.4708 97.7736 25.2937C95.6706 23.1166 94.6191 20.5312 94.6191 17.5377C94.6191 15.5269 95.1068 13.6824 96.0821 12.0043C97.0726 10.3261 98.4136 8.99561 100.12 8.01289C101.842 7.03017 103.686 6.53125 105.652 6.53125ZM105.606 10.447C103.656 10.447 102.01 11.1274 100.669 12.4729C99.3432 13.8185 98.6727 15.542 98.6727 17.6133C98.6727 19.9265 99.5108 21.771 101.187 23.1166C102.498 24.1749 103.991 24.704 105.683 24.704C107.587 24.704 109.218 24.0237 110.559 22.6479C111.9 21.2721 112.57 19.5939 112.57 17.5831C112.57 15.5874 111.9 13.8941 110.544 12.5183C109.187 11.1425 107.557 10.447 105.606 10.447Z" fill="url(#paint1_linear_1396_330)"/>
<path d="M123.328 7.06055H127.351V24.2204H133.218V28.0303H123.328V7.06055Z" fill="url(#paint2_linear_1396_330)"/>
<path d="M139.238 7.06055H144.008C147.086 7.06055 149.356 7.43852 150.85 8.19446C152.343 8.9504 153.578 10.175 154.538 11.8834C155.498 13.5919 155.985 15.5724 155.985 17.8402C155.985 19.458 155.711 20.9396 155.178 22.3003C154.644 23.661 153.898 24.7798 152.938 25.6718C151.978 26.5638 150.957 27.1837 149.844 27.5314C148.732 27.8791 146.812 28.0454 144.069 28.0454H139.223V7.06055H139.238ZM143.23 10.9158V24.1448H145.105C146.949 24.1448 148.275 23.9331 149.113 23.5098C149.936 23.0865 150.621 22.391 151.139 21.3932C151.673 20.4104 151.932 19.1858 151.932 17.7344C151.932 15.512 151.307 13.7733 150.042 12.5487C148.915 11.445 147.101 10.8856 144.602 10.8856H143.23V10.9158Z" fill="url(#paint3_linear_1396_330)"/>
<path fill-rule="evenodd" clip-rule="evenodd" d="M8.56471 31.5985C10.8505 33.4883 13.9745 35.0758 17.6623 36.2248C21.7158 37.4797 26.4399 38.2054 31.4839 38.2054C36.528 38.2054 41.252 37.4797 45.2903 36.2248C48.9629 35.0758 52.0868 33.4883 54.3879 31.5985C57.0699 29.3911 58.6243 26.7605 58.6243 23.9484C58.6243 16.4948 48.6124 12.3069 42.334 10.8706C47.7438 12.2767 56.1556 16.2075 56.1556 22.6028C56.1556 24.9462 54.967 27.1384 52.9097 29.0434C50.7611 31.024 47.6371 32.6719 43.9036 33.8209C40.2615 34.9397 36.0251 35.5747 31.4992 35.5747C26.9732 35.5747 22.7368 34.9397 19.0947 33.8209C15.3612 32.6719 12.2373 31.024 10.0886 29.0434C8.01611 27.1535 6.84272 24.9462 6.84272 22.6028C6.84272 16.2378 15.2241 12.2918 20.6643 10.8706C14.3555 12.322 4.37403 16.5099 4.37403 23.9484C4.32831 26.7605 5.88267 29.3911 8.56471 31.5985Z" fill="url(#paint4_radial_1396_330)"/>
<path fill-rule="evenodd" clip-rule="evenodd" d="M12.8151 28.0754C14.6894 29.6175 17.2191 30.9178 20.2211 31.84C23.5127 32.8681 27.3682 33.4577 31.4674 33.4577C35.5819 33.4577 39.4221 32.8681 42.7137 31.84C45.7157 30.9026 48.2454 29.6175 50.1197 28.0754C52.2989 26.2763 53.5637 24.1445 53.5637 21.8465C53.5637 17.84 49.6931 14.3022 43.8109 12.2158C45.5329 13.1834 47.4987 14.1964 48.9464 15.542C50.6074 17.0841 51.5522 18.853 51.5522 20.7428C51.5522 22.6478 50.5922 24.4318 48.9006 25.989C47.1482 27.5916 44.6033 28.9372 41.5708 29.8746C38.5992 30.7817 35.1552 31.3109 31.4674 31.3109C27.7796 31.3109 24.3356 30.7968 21.3641 29.8746C18.3163 28.9372 15.7866 27.5916 14.0342 25.989C12.3579 24.4469 11.3826 22.6629 11.3826 20.7428C11.3826 18.853 12.3274 17.069 13.9885 15.542C15.4362 14.1964 17.402 13.1683 19.124 12.2158C13.2418 14.3022 9.37109 17.84 9.37109 21.8465C9.37109 24.1445 10.6359 26.2763 12.8151 28.0754Z" fill="url(#paint5_radial_1396_330)"/>
<path fill-rule="evenodd" clip-rule="evenodd" d="M8.71662 34.0322C10.1034 34.9998 11.612 35.8162 13.1664 36.5117L5.89743 48.9998H0L8.71662 34.0322Z" fill="url(#paint6_linear_1396_330)"/>
<path fill-rule="evenodd" clip-rule="evenodd" d="M31.4686 5.04968L18.7442 26.9114C17.4641 26.3067 16.2603 25.5508 15.2697 24.6436C15.0259 24.4168 14.7973 24.1901 14.584 23.933L26.9732 2.64579C27.9637 0.87689 29.7162 0 31.4686 0C33.2211 0 34.9736 0.87689 35.9641 2.64579L48.3533 23.933C48.1399 24.1901 47.8961 24.4168 47.6675 24.6436C46.677 25.5508 45.4731 26.3067 44.193 26.9114L31.4686 5.04968Z" fill="url(#paint7_linear_1396_330)"/>
<path fill-rule="evenodd" clip-rule="evenodd" d="M44.5132 26.7453C44.2999 26.8511 44.4065 26.8057 44.1932 26.9116L31.4688 5.0498L44.5132 26.7453Z" fill="white"/>
<path fill-rule="evenodd" clip-rule="evenodd" d="M54.2193 34.0322C52.8325 34.9998 51.3239 35.8162 49.7695 36.5117L57.0385 48.9998H62.9359L54.2193 34.0322Z" fill="url(#paint8_linear_1396_330)"/>
<path fill-rule="evenodd" clip-rule="evenodd" d="M50.0895 36.3608C49.9829 36.4062 49.8762 36.4516 49.7695 36.512L57.0385 49.0002L50.0895 36.3608Z" fill="white"/>
<path fill-rule="evenodd" clip-rule="evenodd" d="M5.89648 48.9998L13.1654 36.5117C14.4607 37.0862 15.7865 37.57 17.097 37.9782C17.4018 38.069 17.7218 38.1748 18.0418 38.2504L11.7939 48.9847H5.89648V48.9998Z" fill="url(#paint9_linear_1396_330)"/>
<path fill-rule="evenodd" clip-rule="evenodd" d="M18.7441 26.9116L31.4686 5.0498L44.193 26.9116C43.1568 27.4105 42.0748 27.8036 41.0386 28.1211C40.4595 28.3025 39.8804 28.4537 39.2861 28.5898L31.4838 15.1794L23.6815 28.5898C23.0872 28.4537 22.5081 28.2874 21.9291 28.1211C20.8623 27.8036 19.7804 27.3954 18.7441 26.9116Z" fill="url(#paint10_linear_1396_330)"/>
<path fill-rule="evenodd" clip-rule="evenodd" d="M57.0399 48.9998L49.771 36.5117C48.4757 37.0862 47.1499 37.57 45.8393 37.9782C45.5346 38.069 45.2145 38.1748 44.8945 38.2504L51.1425 48.9847H57.0399V48.9998Z" fill="url(#paint11_linear_1396_330)"/>
<path fill-rule="evenodd" clip-rule="evenodd" d="M18.4238 26.7453C18.6372 26.8511 18.5305 26.8057 18.7438 26.9116L31.4683 5.0498L18.4238 26.7453Z" fill="white"/>
<path fill-rule="evenodd" clip-rule="evenodd" d="M12.8454 36.3608C12.9521 36.4062 13.0587 36.4516 13.1654 36.512L5.89648 49.0002L12.8454 36.3608Z" fill="white"/>
</g>
<defs>
<linearGradient id="paint0_linear_1396_330" x1="67.0645" y1="17.5528" x2="89.0374" y2="17.5528" gradientUnits="userSpaceOnUse">
<stop offset="0.0114286" stop-color="#B87633"/>
<stop offset="0.0457256" stop-color="#BC7E38"/>
<stop offset="0.0985997" stop-color="#C89346"/>
<stop offset="0.1632" stop-color="#DCB75D"/>
<stop offset="0.1672" stop-color="#DDB95F"/>
<stop offset="0.1832" stop-color="#E4C46B"/>
<stop offset="0.2208" stop-color="#F2D880"/>
<stop offset="0.2571" stop-color="#FAE48E"/>
<stop offset="0.2903" stop-color="#FDE892"/>
<stop offset="0.3483" stop-color="#FDEBA2"/>
<stop offset="0.4047" stop-color="#FDEDAC"/>
<stop offset="0.5029" stop-color="#FDE892"/>
<stop offset="0.6105" stop-color="#E3C066"/>
<stop offset="0.6979" stop-color="#D1A549"/>
<stop offset="0.7478" stop-color="#CB9B3E"/>
<stop offset="0.7877" stop-color="#CD9E41"/>
<stop offset="0.8214" stop-color="#D3A84C"/>
<stop offset="0.8529" stop-color="#DEB85D"/>
<stop offset="0.8827" stop-color="#ECCE76"/>
<stop offset="0.9091" stop-color="#FDE892"/>
<stop offset="0.9943" stop-color="#DAB145"/>
</linearGradient>
<linearGradient id="paint1_linear_1396_330" x1="94.6258" y1="17.5528" x2="116.599" y2="17.5528" gradientUnits="userSpaceOnUse">
<stop offset="0.0114286" stop-color="#B87633"/>
<stop offset="0.0457256" stop-color="#BC7E38"/>
<stop offset="0.0985997" stop-color="#C89346"/>
<stop offset="0.1632" stop-color="#DCB75D"/>
<stop offset="0.1672" stop-color="#DDB95F"/>
<stop offset="0.1832" stop-color="#E4C46B"/>
<stop offset="0.2208" stop-color="#F2D880"/>
<stop offset="0.2571" stop-color="#FAE48E"/>
<stop offset="0.2903" stop-color="#FDE892"/>
<stop offset="0.3483" stop-color="#FDEBA2"/>
<stop offset="0.4047" stop-color="#FDEDAC"/>
<stop offset="0.5029" stop-color="#FDE892"/>
<stop offset="0.6105" stop-color="#E3C066"/>
<stop offset="0.6979" stop-color="#D1A549"/>
<stop offset="0.7478" stop-color="#CB9B3E"/>
<stop offset="0.7877" stop-color="#CD9E41"/>
<stop offset="0.8214" stop-color="#D3A84C"/>
<stop offset="0.8529" stop-color="#DEB85D"/>
<stop offset="0.8827" stop-color="#ECCE76"/>
<stop offset="0.9091" stop-color="#FDE892"/>
<stop offset="0.9943" stop-color="#DAB145"/>
</linearGradient>
<linearGradient id="paint2_linear_1396_330" x1="123.335" y1="17.553" x2="133.222" y2="17.553" gradientUnits="userSpaceOnUse">
<stop offset="0.0114286" stop-color="#B87633"/>
<stop offset="0.0457256" stop-color="#BC7E38"/>
<stop offset="0.0985997" stop-color="#C89346"/>
<stop offset="0.1632" stop-color="#DCB75D"/>
<stop offset="0.1672" stop-color="#DDB95F"/>
<stop offset="0.1832" stop-color="#E4C46B"/>
<stop offset="0.2208" stop-color="#F2D880"/>
<stop offset="0.2571" stop-color="#FAE48E"/>
<stop offset="0.2903" stop-color="#FDE892"/>
<stop offset="0.3483" stop-color="#FDEBA2"/>
<stop offset="0.4047" stop-color="#FDEDAC"/>
<stop offset="0.5029" stop-color="#FDE892"/>
<stop offset="0.6105" stop-color="#E3C066"/>
<stop offset="0.6979" stop-color="#D1A549"/>
<stop offset="0.7478" stop-color="#CB9B3E"/>
<stop offset="0.7877" stop-color="#CD9E41"/>
<stop offset="0.8214" stop-color="#D3A84C"/>
<stop offset="0.8529" stop-color="#DEB85D"/>
<stop offset="0.8827" stop-color="#ECCE76"/>
<stop offset="0.9091" stop-color="#FDE892"/>
<stop offset="0.9943" stop-color="#DAB145"/>
</linearGradient>
<linearGradient id="paint3_linear_1396_330" x1="139.241" y1="17.553" x2="155.997" y2="17.553" gradientUnits="userSpaceOnUse">
<stop offset="0.0114286" stop-color="#B87633"/>
<stop offset="0.0457256" stop-color="#BC7E38"/>
<stop offset="0.0985997" stop-color="#C89346"/>
<stop offset="0.1632" stop-color="#DCB75D"/>
<stop offset="0.1672" stop-color="#DDB95F"/>
<stop offset="0.1832" stop-color="#E4C46B"/>
<stop offset="0.2208" stop-color="#F2D880"/>
<stop offset="0.2571" stop-color="#FAE48E"/>
<stop offset="0.2903" stop-color="#FDE892"/>
<stop offset="0.3483" stop-color="#FDEBA2"/>
<stop offset="0.4047" stop-color="#FDEDAC"/>
<stop offset="0.5029" stop-color="#FDE892"/>
<stop offset="0.6105" stop-color="#E3C066"/>
<stop offset="0.6979" stop-color="#D1A549"/>
<stop offset="0.7478" stop-color="#CB9B3E"/>
<stop offset="0.7877" stop-color="#CD9E41"/>
<stop offset="0.8214" stop-color="#D3A84C"/>
<stop offset="0.8529" stop-color="#DEB85D"/>
<stop offset="0.8827" stop-color="#ECCE76"/>
<stop offset="0.9091" stop-color="#FDE892"/>
<stop offset="0.9943" stop-color="#DAB145"/>
</linearGradient>
<radialGradient id="paint4_radial_1396_330" cx="0" cy="0" r="1" gradientUnits="userSpaceOnUse" gradientTransform="translate(32.1573 33.5482) scale(28.3775 28.1539)">
<stop stop-color="#B933F4"/>
<stop offset="1" stop-color="#4E1098"/>
</radialGradient>
<radialGradient id="paint5_radial_1396_330" cx="0" cy="0" r="1" gradientUnits="userSpaceOnUse" gradientTransform="translate(31.4704 29.2582) scale(30.3041 30.0654)">
<stop stop-color="#B933F4"/>
<stop offset="1" stop-color="#4E1098"/>
</radialGradient>
<linearGradient id="paint6_linear_1396_330" x1="11.013" y1="35.5157" x2="2.15953" y2="50.0554" gradientUnits="userSpaceOnUse">
<stop stop-color="#B933F4"/>
<stop offset="1" stop-color="#4E1098"/>
</linearGradient>
<linearGradient id="paint7_linear_1396_330" x1="31.0861" y1="1.0869" x2="31.5421" y2="28.8159" gradientUnits="userSpaceOnUse">
<stop stop-color="#B933F4"/>
<stop offset="1" stop-color="#4E1098"/>
</linearGradient>
<linearGradient id="paint8_linear_1396_330" x1="49.7744" y1="41.5149" x2="62.9342" y2="41.5149" gradientUnits="userSpaceOnUse">
<stop stop-color="#B933F4"/>
<stop offset="1" stop-color="#4E1098"/>
</linearGradient>
<linearGradient id="paint9_linear_1396_330" x1="9.52409" y1="47.973" x2="15.0925" y2="37.9011" gradientUnits="userSpaceOnUse">
<stop stop-color="#B933F4"/>
<stop offset="1" stop-color="#4E1098"/>
</linearGradient>
<linearGradient id="paint10_linear_1396_330" x1="31.5752" y1="5.89656" x2="31.4599" y2="28.8019" gradientUnits="userSpaceOnUse">
<stop stop-color="#B933F4"/>
<stop offset="1" stop-color="#4E1098"/>
</linearGradient>
<linearGradient id="paint11_linear_1396_330" x1="54.2802" y1="48.768" x2="47.0664" y2="37.2267" gradientUnits="userSpaceOnUse">
<stop stop-color="#B933F4"/>
<stop offset="1" stop-color="#4E1098"/>
</linearGradient>
<clipPath id="clip0_1396_330">
<rect width="156" height="49" fill="white"/>
</clipPath>
</defs>
</svg>
